<svg xmlns="http://www.w3.org/2000/svg" viewBox="0 0 80 80">
  <path d="M14 32 C14 18 24 10 30 20 L32 28 L48 28 L50 20 C56 10 66 18 66 32 L66 50 C66 62 54 72 40 72 C26 72 14 62 14 50 Z" fill="#FF8C42"/>
  <circle cx="30" cy="40" r="5" fill="#1a1035"/>
  <circle cx="50" cy="40" r="5" fill="#1a1035"/>
  <circle cx="31" cy="39" r="2" fill="#e0d8f0"/>
  <circle cx="51" cy="39" r="2" fill="#e0d8f0"/>
  <ellipse cx="40" cy="50" rx="7" ry="5" fill="#1a1035"/>
  <path d="M33 56 Q40 63 47 56" fill="none" stroke="#1a1035" stroke-width="2.5" stroke-linecap="round"/>
  <path d="M40 50 L40 45" stroke="#e0d8f0" stroke-width="1.5" stroke-linecap="round"/>
</svg>
